<?xml version="1.0" encoding="UTF-8" standalone="no"?>
<svg
   xmlns:dc="http://purl.org/dc/elements/1.1/"
   xmlns:cc="http://creativecommons.org/ns#"
   xmlns:rdf="http://www.w3.org/1999/02/22-rdf-syntax-ns#"
   xmlns:svg="http://www.w3.org/2000/svg"
   xmlns="http://www.w3.org/2000/svg"
   xmlns:sodipodi="http://sodipodi.sourceforge.net/DTD/sodipodi-0.dtd"
   xmlns:inkscape="http://www.inkscape.org/namespaces/inkscape"
   enable-background="new 0 0 24 24"
   height="512"
   viewBox="0 0 24 24"
   width="512"
   version="1.1"
   id="svg20"
   sodipodi:docname="apps menu.svg"
   inkscape:version="1.0.1 (3bc2e813f5, 2020-09-07)">
  <metadata
     id="metadata26">
    <rdf:RDF>
      <cc:Work
         rdf:about="">
        <dc:format>image/svg+xml</dc:format>
        <dc:type
           rdf:resource="http://purl.org/dc/dcmitype/StillImage" />
      </cc:Work>
    </rdf:RDF>
  </metadata>
  <defs
     id="defs24" />
  <sodipodi:namedview
     pagecolor="#ffffff"
     bordercolor="#666666"
     borderopacity="1"
     objecttolerance="10"
     gridtolerance="10"
     guidetolerance="10"
     inkscape:pageopacity="0"
     inkscape:pageshadow="2"
     inkscape:window-width="1366"
     inkscape:window-height="705"
     id="namedview22"
     showgrid="false"
     inkscape:zoom="1.0507812"
     inkscape:cx="448.84442"
     inkscape:cy="332.13383"
     inkscape:window-x="-8"
     inkscape:window-y="-8"
     inkscape:window-maximized="1"
     inkscape:current-layer="svg20" />
  <path
     d="m5 0h-4c-.552 0-1 .448-1 1v4c0 .552.448 1 1 1h4c.552 0 1-.448 1-1v-4c0-.552-.448-1-1-1z"
     id="path2"
     style="fill:#ffffff" />
  <path
     d="m5 9h-4c-.552 0-1 .448-1 1v4c0 .552.448 1 1 1h4c.552 0 1-.448 1-1v-4c0-.552-.448-1-1-1z"
     id="path4"
     style="fill:#ffffff" />
  <path
     d="m5 18h-4c-.552 0-1 .448-1 1v4c0 .552.448 1 1 1h4c.552 0 1-.448 1-1v-4c0-.552-.448-1-1-1z"
     id="path6"
     style="fill:#ffffff" />
  <path
     d="m14 0h-4c-.552 0-1 .448-1 1v4c0 .552.448 1 1 1h4c.552 0 1-.448 1-1v-4c0-.552-.448-1-1-1z"
     id="path8"
     style="fill:#ffffff" />
  <path
     d="m14 9h-4c-.552 0-1 .448-1 1v4c0 .552.448 1 1 1h4c.552 0 1-.448 1-1v-4c0-.552-.448-1-1-1z"
     id="path10"
     style="fill:#ffffff" />
  <path
     d="m14 18h-4c-.552 0-1 .448-1 1v4c0 .552.448 1 1 1h4c.552 0 1-.448 1-1v-4c0-.552-.448-1-1-1z"
     id="path12"
     style="fill:#ffffff" />
  <path
     d="m23 0h-4c-.552 0-1 .448-1 1v4c0 .552.448 1 1 1h4c.552 0 1-.448 1-1v-4c0-.552-.448-1-1-1z"
     id="path14"
     style="fill:#ffffff" />
  <path
     d="m23 9h-4c-.552 0-1 .448-1 1v4c0 .552.448 1 1 1h4c.552 0 1-.448 1-1v-4c0-.552-.448-1-1-1z"
     id="path16"
     style="fill:#ffffff" />
  <path
     d="m23 18h-4c-.552 0-1 .448-1 1v4c0 .552.448 1 1 1h4c.552 0 1-.448 1-1v-4c0-.552-.448-1-1-1z"
     id="path18"
     style="fill:#ffffff" />
</svg>
