<?xml version="1.0" encoding="UTF-8" standalone="no"?>
<svg
   xmlns:dc="http://purl.org/dc/elements/1.1/"
   xmlns:cc="http://creativecommons.org/ns#"
   xmlns:rdf="http://www.w3.org/1999/02/22-rdf-syntax-ns#"
   xmlns:svg="http://www.w3.org/2000/svg"
   xmlns="http://www.w3.org/2000/svg"
   xmlns:sodipodi="http://sodipodi.sourceforge.net/DTD/sodipodi-0.dtd"
   xmlns:inkscape="http://www.inkscape.org/namespaces/inkscape"
   version="1.1"
   id="Capa_1"
   x="0px"
   y="0px"
   viewBox="0 0 486.196 486.196"
   style="enable-background:new 0 0 486.196 486.196;"
   xml:space="preserve"
   sodipodi:docname="house.svg"
   inkscape:version="1.0.1 (3bc2e813f5, 2020-09-07)"><metadata
   id="metadata41"><rdf:RDF><cc:Work
       rdf:about=""><dc:format>image/svg+xml</dc:format><dc:type
         rdf:resource="http://purl.org/dc/dcmitype/StillImage" /></cc:Work></rdf:RDF></metadata><defs
   id="defs39" /><sodipodi:namedview
   pagecolor="#ffffff"
   bordercolor="#666666"
   borderopacity="1"
   objecttolerance="10"
   gridtolerance="10"
   guidetolerance="10"
   inkscape:pageopacity="0"
   inkscape:pageshadow="2"
   inkscape:window-width="1366"
   inkscape:window-height="705"
   id="namedview37"
   showgrid="false"
   inkscape:zoom="1.1065496"
   inkscape:cx="203.23536"
   inkscape:cy="243.09801"
   inkscape:window-x="-8"
   inkscape:window-y="-8"
   inkscape:window-maximized="1"
   inkscape:current-layer="Capa_1" />
<g
   id="g4">
	<path
   d="M481.708,220.456l-228.8-204.6c-0.4-0.4-0.8-0.7-1.3-1c-5-4.8-13-5-18.3-0.3l-228.8,204.6c-5.6,5-6,13.5-1.1,19.1   c2.7,3,6.4,4.5,10.1,4.5c3.2,0,6.4-1.1,9-3.4l41.2-36.9v7.2v106.8v124.6c0,18.7,15.2,34,34,34c0.3,0,0.5,0,0.8,0s0.5,0,0.8,0h70.6   c17.6,0,31.9-14.3,31.9-31.9v-121.3c0-2.7,2.2-4.9,4.9-4.9h72.9c2.7,0,4.9,2.2,4.9,4.9v121.3c0,17.6,14.3,31.9,31.9,31.9h72.2   c19,0,34-18.7,34-42.6v-111.2v-34v-83.5l41.2,36.9c2.6,2.3,5.8,3.4,9,3.4c3.7,0,7.4-1.5,10.1-4.5   C487.708,233.956,487.208,225.456,481.708,220.456z M395.508,287.156v34v111.1c0,9.7-4.8,15.6-7,15.6h-72.2c-2.7,0-4.9-2.2-4.9-4.9   v-121.1c0-17.6-14.3-31.9-31.9-31.9h-72.9c-17.6,0-31.9,14.3-31.9,31.9v121.3c0,2.7-2.2,4.9-4.9,4.9h-70.6c-0.3,0-0.5,0-0.8,0   s-0.5,0-0.8,0c-3.8,0-7-3.1-7-7v-124.7v-106.8v-31.3l151.8-135.6l153.1,136.9L395.508,287.156L395.508,287.156z"
   id="path2"
   style="fill:#909090;stroke-width:0;stroke-miterlimit:4;stroke-dasharray:none" />
</g>
<g
   id="g6">
</g>
<g
   id="g8">
</g>
<g
   id="g10">
</g>
<g
   id="g12">
</g>
<g
   id="g14">
</g>
<g
   id="g16">
</g>
<g
   id="g18">
</g>
<g
   id="g20">
</g>
<g
   id="g22">
</g>
<g
   id="g24">
</g>
<g
   id="g26">
</g>
<g
   id="g28">
</g>
<g
   id="g30">
</g>
<g
   id="g32">
</g>
<g
   id="g34">
</g>
<path
   style="fill:#909090;stroke:#909090;stroke-width:1px;stroke-linecap:butt;stroke-linejoin:miter;stroke-opacity:1"
   d="m 242.408,42.656 -151.8,135.6 -3.851834,274.50274 92.178424,-4.51855 v -75.00793 -60.54858 l 12.65194,-12.65194 7.22968,-7.22968 92.17843,3.61484 15.36307,16.26678 v 131.03796 l 5.42226,9.94081 87.65988,-4.51855 L 395.508,287.156 v -107.6 l -153.1,-136.9"
   id="path43"
   sodipodi:nodetypes="cccccccccccccccc" /></svg>
