<?xml version="1.0" encoding="UTF-8" standalone="no"?>
<svg
   xmlns:dc="http://purl.org/dc/elements/1.1/"
   xmlns:cc="http://creativecommons.org/ns#"
   xmlns:rdf="http://www.w3.org/1999/02/22-rdf-syntax-ns#"
   xmlns:svg="http://www.w3.org/2000/svg"
   xmlns="http://www.w3.org/2000/svg"
   xmlns:sodipodi="http://sodipodi.sourceforge.net/DTD/sodipodi-0.dtd"
   xmlns:inkscape="http://www.inkscape.org/namespaces/inkscape"
   height="472pt"
   viewBox="0 -87 472 472"
   width="472pt"
   version="1.1"
   id="svg4"
   sodipodi:docname="video-camera.svg"
   inkscape:version="1.0.1 (3bc2e813f5, 2020-09-07)">
  <metadata
     id="metadata10">
    <rdf:RDF>
      <cc:Work
         rdf:about="">
        <dc:format>image/svg+xml</dc:format>
        <dc:type
           rdf:resource="http://purl.org/dc/dcmitype/StillImage" />
      </cc:Work>
    </rdf:RDF>
  </metadata>
  <defs
     id="defs8" />
  <sodipodi:namedview
     pagecolor="#ffffff"
     bordercolor="#666666"
     borderopacity="1"
     objecttolerance="10"
     gridtolerance="10"
     guidetolerance="10"
     inkscape:pageopacity="0"
     inkscape:pageshadow="2"
     inkscape:window-width="1366"
     inkscape:window-height="705"
     id="namedview6"
     showgrid="false"
     inkscape:zoom="1.2089728"
     inkscape:cx="314.66667"
     inkscape:cy="314.66667"
     inkscape:window-x="-8"
     inkscape:window-y="-8"
     inkscape:window-maximized="1"
     inkscape:current-layer="svg4"
     inkscape:snap-bbox="false"
     inkscape:snap-nodes="true" />
  <path
     d="m467.101562 26.527344c-3.039062-1.800782-6.796874-1.871094-9.898437-.179688l-108.296875 59.132813v-35.480469c-.03125-27.601562-22.398438-49.96875-50-50h-248.90625c-27.601562.03125-49.96875 22.398438-50 50v197.421875c.03125 27.601563 22.398438 49.96875 50 50h248.90625c27.601562-.03125 49.96875-22.398437 50-50v-34.835937l108.300781 59.132812c3.097657 1.691406 6.859375 1.625 9.894531-.175781 3.039063-1.804688 4.898438-5.074219 4.898438-8.601563v-227.816406c0-3.53125-1.863281-6.796875-4.898438-8.597656zm-138.203124 220.898437c-.015626 16.5625-13.4375 29.980469-30 30h-248.898438c-16.5625-.019531-29.980469-13.4375-30-30v-197.425781c.019531-16.558594 13.4375-29.980469 30-30h248.90625c16.558594.019531 29.980469 13.441406 30 30zm123.101562-1.335937-103.09375-56.289063v-81.535156l103.09375-56.285156zm0 0"
     id="path2" />
  <path
     style="fill:none;stroke:#000000;stroke-width:0.75px;stroke-linecap:butt;stroke-linejoin:miter;stroke-opacity:1"
     d="M 39.082766,25.905768 Z"
     id="path32" />
  <path
     style="fill:#ffffff;stroke:#000000;stroke-width:0.75px;stroke-linecap:butt;stroke-linejoin:miter;stroke-opacity:1"
     d="M 39.082766,25.905768 H 31.638429 L 21.092286,38.933358 V 257.30055 l 9.30542,13.64795 12.407227,6.82398 259.931417,-0.62037 16.74975,-6.20361 9.30542,-14.88867 L 328.17116,44.516606 321.96755,30.868661 313.28249,24.04468 302.11598,20.942875 53.351077,18.461433 Z"
     id="path34" />
  <text
     xml:space="preserve"
     style="font-style:normal;font-weight:normal;font-size:340.123px;line-height:1.25;font-family:sans-serif;fill:#000000;fill-opacity:1;stroke:none;stroke-width:8.50303"
     x="53.204281"
     y="267.30939"
     id="text40"
     transform="scale(1.0280095,0.97275366)"><tspan
       sodipodi:role="line"
       id="tspan38"
       x="53.204281"
       y="267.30939"
       style="stroke-width:8.50303">+</tspan></text>
  <path
     style="fill:#ffffff;stroke:#000000;stroke-width:0.75px;stroke-linecap:butt;stroke-linejoin:miter;stroke-opacity:1"
     d="M 452,51.980471 348.90625,108.26563 v 81.53515 L 452,246.08984 V 51.980471"
     id="path42" />
</svg>
