<?xml version="1.0" encoding="UTF-8" standalone="no"?>
<svg
   xmlns:dc="http://purl.org/dc/elements/1.1/"
   xmlns:cc="http://creativecommons.org/ns#"
   xmlns:rdf="http://www.w3.org/1999/02/22-rdf-syntax-ns#"
   xmlns:svg="http://www.w3.org/2000/svg"
   xmlns="http://www.w3.org/2000/svg"
   xmlns:sodipodi="http://sodipodi.sourceforge.net/DTD/sodipodi-0.dtd"
   xmlns:inkscape="http://www.inkscape.org/namespaces/inkscape"
   width="600mm"
   height="200mm"
   viewBox="0 0 600 200"
   version="1.1"
   id="svg20"
   inkscape:version="1.0.1 (3bc2e813f5, 2020-09-07)"
   sodipodi:docname="youtubelogo.svg">
  <defs
     id="defs14">
    <rect
       x="210.91071"
       y="72.571426"
       width="247.19643"
       height="105.07738"
       id="rect65" />
  </defs>
  <sodipodi:namedview
     id="base"
     pagecolor="#ffffff"
     bordercolor="#666666"
     borderopacity="1.0"
     inkscape:pageopacity="0.0"
     inkscape:pageshadow="2"
     inkscape:zoom="0.35"
     inkscape:cx="1007.874"
     inkscape:cy="560"
     inkscape:document-units="mm"
     inkscape:current-layer="layer1"
     inkscape:document-rotation="0"
     showgrid="false"
     inkscape:window-width="1267"
     inkscape:window-height="728"
     inkscape:window-x="83"
     inkscape:window-y="0"
     inkscape:window-maximized="0"
     units="mm"
     height="200mm" />
  <metadata
     id="metadata17">
    <rdf:RDF>
      <cc:Work
         rdf:about="">
        <dc:format>image/svg+xml</dc:format>
        <dc:type
           rdf:resource="http://purl.org/dc/dcmitype/StillImage" />
        <dc:title></dc:title>
      </cc:Work>
    </rdf:RDF>
  </metadata>
  <g
     inkscape:label="Layer 1"
     inkscape:groupmode="layer"
     id="layer1">
    <g
       id="g61"
       transform="matrix(0.35277632,0,0,0.35277632,42.736501,38.065221)">
      <path
         d="M 501.45312,56.09375 C 495.55078,34.160156 478.25781,16.871094 456.32812,10.964844 416.26172,0 255.99609,0 255.99609,0 255.99609,0 95.734375,0 55.667969,10.546875 34.160156,16.449219 16.445312,34.164062 10.542969,56.09375 0,96.15625 0,179.24219 0,179.24219 c 0,0 0,83.5039 10.542969,123.14843 5.90625,21.92969 23.195312,39.22266 45.128906,45.12891 C 96.15625,358.48437 256,358.48437 256,358.48437 c 0,0 160.26172,0 200.32812,-10.54687 21.9336,-5.90234 39.22266,-23.19531 45.12891,-45.125 C 512,262.74609 512,179.66406 512,179.66406 c 0,0 0.42187,-83.50781 -10.54688,-123.57031 z m 0,0"
         fill="#ff0000"
         id="path47" />
      <path
         d="M 204.96875,256 338.23828,179.24219 204.96875,102.48438 Z m 0,0"
         fill="#ffffff"
         id="path49" />
    </g>
    <text
       xml:space="preserve"
       id="text63"
       style="font-style:normal;font-weight:normal;font-size:10.5833px;line-height:1.25;font-family:sans-serif;white-space:pre;shape-inside:url(#rect65);fill:#000000;fill-opacity:1;stroke:none;" />
    <text
       xml:space="preserve"
       style="font-style:normal;font-weight:normal;font-size:91.7786px;line-height:1.25;font-family:sans-serif;fill:#ffffff;fill-opacity:1;stroke:none;stroke-width:2.29447"
       x="380.80869"
       y="102.4208"
       id="text71"
       transform="scale(0.68248214,1.4652398)"><tspan
         sodipodi:role="line"
         id="tspan69"
         x="380.80869"
         y="102.4208"
         style="fill:#ffffff;stroke-width:2.29447">YouTube</tspan></text>
  </g>
</svg>
